<svg xmlns="http://www.w3.org/2000/svg" xmlns:xlink="http://www.w3.org/1999/xlink" viewBox="0,0,256,256" width="96px" height="96px" fill-rule="nonzero"><g fill="#eb7077" fill-rule="nonzero" stroke="none" stroke-width="1" stroke-linecap="butt" stroke-linejoin="miter" stroke-miterlimit="10" stroke-dasharray="" stroke-dashoffset="0" font-family="none" font-weight="none" font-size="none" text-anchor="none" style="mix-blend-mode: normal"><g transform="scale(10.66667,10.66667)"><path d="M20.589,12.43c-0.441,0 -0.769,0.315 -0.956,0.692c-0.01,-0.01 -0.028,-0.027 -0.038,-0.038c-0.366,-2.064 -0.68,-3.971 -1.327,-6.006c-0.154,-0.392 -0.299,-0.854 -0.691,-1.076l-3.734,0.003c-0.222,0.073 -0.395,0.337 -0.46,0.49c-0.816,1.916 -1.061,4.061 -1.427,5.83c-0.033,-0.021 -0.04,-0.061 -0.059,-0.142c-0.265,-1.174 -0.579,-3.842 -1.449,-5.74c-0.084,-0.184 -0.238,-0.341 -0.432,-0.442c-0.258,0.005 -3.376,0.007 -3.732,0.007c-0.138,0.058 -0.291,0.189 -0.364,0.353c-0.934,2.079 -1.247,4.53 -1.61,6.451c-0.014,0.011 -0.036,0.03 -0.05,0.039c-0.207,-0.274 -0.537,-0.415 -0.873,-0.415l-3.386,0.017c1.992,0.835 1.559,3.684 2.282,5.119c0.087,0.173 0.22,0.39 0.429,0.419c0.411,0 3.484,0.008 3.484,0.008c0.344,-0.1 0.472,-0.467 0.579,-0.747c0.69,-1.809 1.03,-4.175 1.397,-6.055c0.009,0.005 0.022,0.013 0.03,0.018c0.386,1.979 0.7,4.068 1.361,5.891c0.114,0.315 0.34,0.885 0.734,0.885c0,0 3.483,0.005 3.481,0.006h0.002c0.478,-0.305 0.595,-0.952 0.784,-1.469c0.503,-1.761 0.766,-3.29 1.142,-5.324c0.017,0.011 0.031,0.028 0.034,0.05c0.459,2.111 0.569,4.347 1.588,6.364c0.119,0.235 0.235,0.37 0.502,0.37c1.197,0 2.317,0.007 3.477,0.006c1.612,-1.398 0.215,-4.804 2.693,-5.554c-0.697,-0.001 -2.695,-0.01 -3.411,-0.01z" opacity="0.3"></path><path d="M9.774,6.003c-0.796,0.003 -3.181,0.004 -3.49,0.004c-0.138,0.059 -0.291,0.19 -0.364,0.354c-0.934,2.079 -1.247,4.53 -1.61,6.451c-0.394,1.851 -0.815,4.426 -1.607,5.175c0.003,0.001 0.006,0.003 0.009,0.003c0.411,0 3.484,0.008 3.484,0.008c0.344,-0.1 0.472,-0.467 0.579,-0.747c0.69,-1.809 1.03,-4.175 1.397,-6.055c0.672,-3.539 1.18,-4.994 1.602,-5.193z"></path><path d="M17.322,6.002l-3.479,0.002c-0.222,0.073 -0.395,0.337 -0.46,0.49c-0.816,1.916 -1.061,4.061 -1.427,5.83c-0.799,3.648 -1.063,5.082 -1.669,5.662c0.003,0 0.006,0.003 0.009,0.003c0,0 3.483,0.005 3.481,0.006h0.002c0.478,-0.305 0.595,-0.952 0.784,-1.469c0.503,-1.761 0.766,-3.29 1.142,-5.324c0.555,-2.951 1.038,-4.874 1.617,-5.2z"></path><path d="M24,12.439c-0.697,0 -2.695,-0.009 -3.411,-0.009c-0.441,0 -0.769,0.315 -0.956,0.692v0c-0.001,0.002 -0.002,0.003 -0.003,0.005c-0.791,2.078 -0.56,4.075 -1.801,4.861c0,0 0,0 0.001,0c1.197,0 2.317,0.007 3.477,0.006c1.611,-1.399 0.215,-4.806 2.693,-5.555z"></path></g></g></svg>